<?xml version="1.0" encoding="UTF-8"?>
<svg width="20px" height="21px" viewBox="0 0 20 21" version="1.1" xmlns="http://www.w3.org/2000/svg" xmlns:xlink="http://www.w3.org/1999/xlink">
    <!-- Generator: Sketch 52.2 (67145) - http://www.bohemiancoding.com/sketch -->
    <title>calendar</title>
    <desc>Created with Sketch.</desc>
    <g id="Page-1" stroke="none" stroke-width="1" fill="none" fill-rule="evenodd">
        <g id="iPhone-8-Copy-18" transform="translate(-178.000000, -631.000000)">
            <g id="Tab-Bar" transform="translate(0.000000, 618.000000)">
                <g id="calendar" transform="translate(174.000000, 10.000000)">
                    <rect id="Rectangle-5" opacity="0.300000012" x="0" y="0" width="28" height="28"></rect>
                    <path d="M21,4.66666667 L21.3333333,4.66666667 C22.4379028,4.66666667 23.3333333,5.56209717 23.3333333,6.66666667 L23.3333333,21.3333333 C23.3333333,22.4379028 22.4379028,23.3333333 21.3333333,23.3333333 L6.66666667,23.3333333 C5.56209717,23.3333333 4.66666667,22.4379028 4.66666667,21.3333333 L4.66666667,6.66666667 C4.66666667,5.56209717 5.56209717,4.66666667 6.66666667,4.66666667 L7,4.66666667 L7,6.41666667 C7,7.38316498 7.78350169,8.16666667 8.75,8.16666667 C9.71649831,8.16666667 10.5,7.38316498 10.5,6.41666667 L10.5,4.66666667 L17.5,4.66666667 L17.5,6.41666667 C17.5,7.38316498 18.2835017,8.16666667 19.25,8.16666667 C20.2164983,8.16666667 21,7.38316498 21,6.41666667 L21,4.66666667 Z M7.67,10.17 C7.11771525,10.17 6.67,10.6177153 6.67,11.17 L6.67,20.33 C6.67,20.8822847 7.11771525,21.33 7.67,21.33 L20.33,21.33 C20.8822847,21.33 21.33,20.8822847 21.33,20.33 L21.33,11.17 C21.33,10.6177153 20.8822847,10.17 20.33,10.17 L7.67,10.17 Z" id="Combined-Shape-Copy-2" fill="#828A99"></path>
                    <path d="M8.66666667,3.5 L8.83333333,3.5 C9.10947571,3.5 9.33333333,3.72385763 9.33333333,4 L9.33333333,6.5 C9.33333333,6.77614237 9.10947571,7 8.83333333,7 L8.66666667,7 C8.39052429,7 8.16666667,6.77614237 8.16666667,6.5 L8.16666667,4 C8.16666667,3.72385763 8.39052429,3.5 8.66666667,3.5 Z M19.1666667,3.5 L19.3333333,3.5 C19.6094757,3.5 19.8333333,3.72385763 19.8333333,4 L19.8333333,6.5 C19.8333333,6.77614237 19.6094757,7 19.3333333,7 L19.1666667,7 C18.8905243,7 18.6666667,6.77614237 18.6666667,6.5 L18.6666667,4 C18.6666667,3.72385763 18.8905243,3.5 19.1666667,3.5 Z" id="Combined-Shape" fill="#828A99"></path>
                </g>
            </g>
        </g>
    </g>
</svg>
