<?xml version="1.0" encoding="UTF-8"?>
<svg width="20px" height="20px" viewBox="0 0 20 20" version="1.1" xmlns="http://www.w3.org/2000/svg" xmlns:xlink="http://www.w3.org/1999/xlink">
    <!-- Generator: Sketch 52.2 (67145) - http://www.bohemiancoding.com/sketch -->
    <title>outline-person_outline-24px</title>
    <desc>Created with Sketch.</desc>
    <g id="Page-1" stroke="none" stroke-width="1" fill="none" fill-rule="evenodd">
        <g id="iPhone-8-Copy-25" transform="translate(-302.000000, -632.000000)">
            <g id="Tab-Bar" transform="translate(0.000000, 618.000000)">
                <g id="outline-person_outline-24px" transform="translate(298.000000, 10.000000)">
                    <polygon id="Path" points="0 0 28 0 28 28 0 28"></polygon>
                    <path d="M16.67,9.33 C16.67,10.8048571 15.4748571,12 14,12 C12.5251429,12 11.33,10.8048571 11.33,9.33 C11.33,7.85514286 12.5251429,6.66 14,6.66 C15.4748571,6.66 16.67,7.85514286 16.67,9.33 Z M21.34,19.8333333 L21.34,20.59 C21.34,21.0042136 21.0042136,21.34 20.59,21.34 L7.41,21.34 C6.99578644,21.34 6.66,21.0042136 6.66,20.59 L6.66,19.8333333 C6.66,19.0866667 10.535,17.16 14,17.16 C17.465,17.16 21.34,19.0866667 21.34,19.8333333 Z M14,4.66666667 C11.4216667,4.66666667 9.33333333,6.755 9.33333333,9.33333333 C9.33333333,11.9116667 11.4216667,14 14,14 C16.5783333,14 18.6666667,11.9116667 18.6666667,9.33333333 C18.6666667,6.755 16.5783333,4.66666667 14,4.66666667 Z M14,15.1666667 C10.885,15.1666667 4.66666667,16.73 4.66666667,19.8333333 L4.66666667,20.5333334 C4.66666667,22.0797307 5.92026935,23.3333333 7.46666662,23.3333333 L20.5333334,23.3333333 C22.0797307,23.3333333 23.3333333,22.0797307 23.3333333,20.5333334 L23.3333333,19.8333333 C23.3333333,16.73 17.115,15.1666667 14,15.1666667 Z" id="Shape" fill="#2975CC" fill-rule="nonzero"></path>
                </g>
            </g>
        </g>
    </g>
</svg>