<?xml version="1.0" encoding="UTF-8"?>
<svg width="14px" height="14px" viewBox="0 0 14 14" version="1.1" xmlns="http://www.w3.org/2000/svg" xmlns:xlink="http://www.w3.org/1999/xlink">
    <!-- Generator: Sketch 50.2 (55047) - http://www.bohemiancoding.com/sketch -->
    <title>close</title>
    <desc>Created with Sketch.</desc>
    <defs>
        <path d="M10,8.40900974 L14.3295125,4.07949724 C14.7688523,3.64015741 15.4811629,3.64015741 15.9205028,4.07949724 C16.3598426,4.51883707 16.3598426,5.23114767 15.9205028,5.6704875 L11.5909903,10 L15.9205028,14.3295125 C16.3598426,14.7688523 16.3598426,15.4811629 15.9205028,15.9205028 C15.4811629,16.3598426 14.7688523,16.3598426 14.3295125,15.9205028 L10,11.5909903 L5.6704875,15.9205028 C5.23114767,16.3598426 4.51883707,16.3598426 4.07949724,15.9205028 C3.64015741,15.4811629 3.64015741,14.7688523 4.07949724,14.3295125 L8.40900974,10 L4.07949724,5.6704875 C3.64015741,5.23114767 3.64015741,4.51883707 4.07949724,4.07949724 C4.51883707,3.64015741 5.23114767,3.64015741 5.6704875,4.07949724 L10,8.40900974 Z" id="path-1"></path>
    </defs>
    <g id="Page-1" stroke="none" stroke-width="1" fill="none" fill-rule="evenodd" opacity="0.799999952">
        <g id="mobile_3" transform="translate(-343.000000, -283.000000)">
            <g id="Group-7" transform="translate(0.000000, 265.000000)">
                <g id="Group-2">
                    <g id="close" transform="translate(340.000000, 15.000000)">
                        <g id="Icons-16/cancel_16">
                            <rect id="Rectangle" x="0" y="0" width="20" height="20"></rect>
                            <mask id="mask-2" fill="white">
                                <use xlink:href="#path-1"></use>
                            </mask>
                            <use id="Mask" fill="#AAAEB3" fill-rule="nonzero" xlink:href="#path-1"></use>
                        </g>
                    </g>
                </g>
            </g>
        </g>
    </g>
</svg>